<svg id="Capa_1" enable-background="new 0 0 512 512" height="512" viewBox="0 0 512 512" width="512" xmlns="http://www.w3.org/2000/svg"><g><path d="m368.879 401.946 45.414-122.578-45.413-133.469c-48.8-9.09-102.641-25.864-151.441-34.954l.001.01-39.116 145.045 39.113 110.995c48.801 9.09 102.642 25.863 151.443 34.954z" fill="#f9efcd"/><path d="m217.44 366.997c29.382 5.473 60.591 13.73 91.428 21.42-30.055-15.358-63.179-42.178-91.428-77.087l-11.042 29.37z" fill="#f8debb"/><g><g><path d="m217.44 110.955c-53.134-9.897-100.298-10.695-128.461 17.468v256.049c28.163-28.163 75.327-27.365 128.461-17.468z" fill="#e06e7e"/><g><path d="m217.44 311.357c-43.481-53.72-75.39-126.612-66.786-206.419-24.87 1.257-46.159 7.97-61.674 23.485v256.049c28.163-28.163 75.327-27.365 128.461-17.467v-55.648z" fill="#d7495d"/></g><path d="m466.885 146.596c-26.823 8.677-60.962 6.202-98.006-.698v256.048c37.188 6.927 71.451 9.396 98.321.597 17.991-5.892 30.14-22.705 30.14-41.636v-192.258c0-15.805-15.418-26.917-30.455-22.053z" fill="#e06e7e"/></g></g><path d="m70.928 504.5h-19.728c-9.969 0-18.051-8.082-18.051-18.051v-356.602h55.83v356.601c0 9.97-8.082 18.052-18.051 18.052z" fill="#deb597"/><path d="m33.149 129.847h55.83v30h-55.83z" fill="#d79882"/><ellipse cx="61.064" cy="47.727" fill="#edcf76" rx="40.227" ry="40.227" transform="matrix(.707 -.707 .707 .707 -15.863 57.158)"/><path d="m90.121 80.374h-58.114c-9.58 0-17.347 7.766-17.347 17.346v14.781c0 9.58 7.766 17.347 17.347 17.347h58.115c9.58 0 17.346-7.766 17.346-17.347v-14.781c0-9.58-7.766-17.346-17.347-17.346z" fill="#f3e872"/><path d="m288.309 271.024c3.18.792 6.521.792 9.701 0 38.802-9.663 26.65-25.793 26.65-40.719 0-5.22.697-9.744 2.053-13.837 2.187-6.6-2.568-13.428-9.521-13.428h-24.032-24.032c-6.953 0-11.708 6.828-9.521 13.428 1.356 4.094 2.053 8.617 2.053 13.837-.001 14.926-12.153 31.056 26.649 40.719z" fill="#f8debb"/><path d="m291.532 251.585v-48.546h-22.405c-6.953 0-11.708 6.828-9.521 13.428 1.356 4.094 2.053 8.617 2.053 13.837 0 1.779-.173 3.575-.412 5.375z" fill="#a1dcfc"/><path d="m288.309 271.024c3.18.792 6.521.792 9.701 0 34.178-8.512 28.824-22.04 27.061-35.344h-63.824c-1.761 13.304-7.115 26.832 27.062 35.344z" fill="#e06e7e"/><path d="m464.575 139.46c-2.059.667-4.219 1.277-6.421 1.814-4.023.983-6.489 5.042-5.507 9.065.983 4.024 5.04 6.488 9.065 5.507 2.557-.624 5.074-1.337 7.481-2.115 10.225-3.304 20.646 4.213 20.646 14.917v192.259c0 15.749-10.037 29.617-24.974 34.509-23.876 7.817-54.824 6.069-88.487.234v-240.819c14.976 2.522 33.335 4.811 48.398 4.811 4.109 0 7.46-3.313 7.498-7.431.039-4.142-3.288-7.531-7.43-7.569-92.771-.857-230.781-68.242-309.877-40.767v-6.155c0-10.127-6.093-18.852-14.802-22.718 22.04-31.584-.64-75.002-39.101-75.002-26.317 0-47.727 21.41-47.727 47.727 0 9.856 3.103 19.359 8.626 27.275-8.71 3.866-14.803 12.591-14.803 22.718v14.781c0 11.503 7.859 21.202 18.489 24.018v300.094c0 4.142 3.358 7.5 7.5 7.5s7.5-3.358 7.5-7.5v-299.266h40.83v247.123.005 101.974c0 5.818-4.733 10.551-10.551 10.551h-19.728c-5.818 0-10.551-4.733-10.551-10.551v-13.915c0-4.142-3.358-7.5-7.5-7.5s-7.5 3.358-7.5 7.5v13.915c0 14.089 11.462 25.551 25.551 25.551h19.728c14.089 0 25.551-11.462 25.551-25.551v-98.752c71.357-64.589 271.644 55.185 373.055 21.974 21.118-6.915 35.306-26.512 35.306-48.764v-192.259c0-20.927-20.375-35.621-40.265-29.188zm-403.511-124.46c18.046 0 32.727 14.681 32.727 32.727 0 9.717-4.38 18.951-11.81 25.146h-41.834c-7.431-6.195-11.81-15.43-11.81-25.146 0-18.046 14.681-32.727 32.727-32.727zm29.058 107.347h-58.115c-5.43 0-9.847-4.417-9.847-9.846v-14.781c0-5.43 4.417-9.847 9.847-9.847h58.115c5.429 0 9.846 4.417 9.846 9.847v14.781c0 5.429-4.417 9.846-9.846 9.846zm119.818 235.72c-11.519-1.942-22.75-3.419-33.5-4.192-34.169-2.455-60.516 2.459-79.961 14.983v-232.339c8.037-2.129 14.484-8.195 17.154-16 24.806-11.166 58.875-9.751 96.307-3.266zm151.439 34.757c-44.422-8.943-91.509-23.156-136.439-32.008v-240.746c44.344 8.924 91.598 23.185 136.439 32.012zm-36.534-106.034c-4.643 4.758-14.109 10.421-32.861 10.421-.041 0-.085 0-.127 0h-.325-.325c-18.859.061-28.335-5.653-32.988-10.421-2.893-2.964-7.642-3.023-10.606-.129-2.964 2.893-3.023 7.642-.129 10.606 4.282 4.388 11.179 9.31 21.929 12.267-1.25 2.689-.833 5.979 1.315 8.28 2.817 3.018 7.562 3.201 10.6.366 4.411-4.116 8.623-5.968 10.205-5.968s5.794 1.852 10.205 5.968c3.042 2.839 7.788 2.649 10.6-.366 2.147-2.301 2.564-5.592 1.314-8.28 10.75-2.957 17.648-7.879 21.93-12.266 2.893-2.964 2.835-7.713-.129-10.606-2.967-2.894-7.715-2.837-10.608.128zm-72.358-67.963c1.126 3.396 1.672 7.15 1.672 11.478 0 2.307-.397 4.871-.818 7.585-2.527 16.316-1.894 31.684 33.155 40.413.958.116 6.263 1.758 13.326 0 35.049-8.729 35.683-24.097 33.155-40.413-.421-2.714-.818-5.277-.818-7.585 0-4.326.547-8.081 1.672-11.478 3.765-11.361-4.475-23.288-16.64-23.288h-48.065c-12.161 0-20.404 11.924-16.639 23.288zm65.271 34.068c-2.452 4.197-9.907 7.95-21.56 10.852-1.988.495-4.089.495-6.078 0h.001c-11.654-2.902-19.109-6.655-21.561-10.852-1.455-2.491-1.397-5.487-.831-9.714h50.858c.568 4.226.626 7.223-.829 9.714zm-18.726-42.356h18.16c1.068 0 1.698.562 2.039 1.034 1.768 2.45-1.615 3.941-2.036 16.607h-18.164v-17.641zm-15 17.641h-14.909c-.417-12.552-3.799-14.167-2.035-16.607.341-.472.971-1.034 2.039-1.034h14.905z"/></g></svg>